<mxfile host="app.diagrams.net" modified="2023-12-17T09:23:33.931Z" agent="Mozilla/5.0 (Macintosh; Intel Mac OS X 10_15_7) AppleWebKit/537.36 (KHTML, like Gecko) Chrome/120.0.0.0 Safari/537.36 Edg/120.0.0.0" etag="uuMI1CKa9kDI3I3YP49J" version="21.6.1" type="device">
  <diagram name="PÃ¡gina-1" id="DaKt5Ugi6OX6pE_xyUPa">
    <mxGraphModel dx="1001" dy="967" grid="1" gridSize="10" guides="1" tooltips="1" connect="1" arrows="1" fold="1" page="1" pageScale="1" pageWidth="827" pageHeight="1169" math="0" shadow="0">
      <root>
        <mxCell id="0" />
        <mxCell id="1" parent="0" />
        <mxCell id="y9ehpkaNFnIu_bV9-kYs-34" value="Data Converters" style="rounded=1;whiteSpace=wrap;html=1;fillColor=#e1d5e7;strokeColor=#9673a6;verticalAlign=top;" parent="1" vertex="1">
          <mxGeometry x="430" y="730" width="243" height="140" as="geometry" />
        </mxCell>
        <mxCell id="y9ehpkaNFnIu_bV9-kYs-40" value="Effect controls" style="rounded=1;whiteSpace=wrap;html=1;fillColor=#fff2cc;strokeColor=#d6b656;verticalAlign=top;" parent="1" vertex="1">
          <mxGeometry x="460" y="570" width="130" height="150" as="geometry" />
        </mxCell>
        <mxCell id="y9ehpkaNFnIu_bV9-kYs-38" value="Processor" style="rounded=1;whiteSpace=wrap;html=1;fillColor=#dae8fc;strokeColor=#6c8ebf;verticalAlign=top;horizontal=1;" parent="1" vertex="1">
          <mxGeometry x="194" y="570" width="210" height="300" as="geometry" />
        </mxCell>
        <mxCell id="y9ehpkaNFnIu_bV9-kYs-31" value="Power Supply" style="rounded=1;whiteSpace=wrap;html=1;verticalAlign=top;opacity=20;labelBackgroundColor=default;align=center;" parent="1" vertex="1">
          <mxGeometry x="220" y="445" width="510" height="90" as="geometry" />
        </mxCell>
        <mxCell id="y9ehpkaNFnIu_bV9-kYs-3" value="" style="edgeStyle=orthogonalEdgeStyle;rounded=0;orthogonalLoop=1;jettySize=auto;html=1;" parent="1" source="y9ehpkaNFnIu_bV9-kYs-1" target="y9ehpkaNFnIu_bV9-kYs-2" edge="1">
          <mxGeometry relative="1" as="geometry" />
        </mxCell>
        <mxCell id="y9ehpkaNFnIu_bV9-kYs-6" style="edgeStyle=orthogonalEdgeStyle;rounded=0;orthogonalLoop=1;jettySize=auto;html=1;entryX=0;entryY=0.5;entryDx=0;entryDy=0;" parent="1" source="y9ehpkaNFnIu_bV9-kYs-1" edge="1">
          <mxGeometry relative="1" as="geometry">
            <mxPoint x="194" y="300" as="targetPoint" />
            <Array as="points">
              <mxPoint x="84" y="300" />
            </Array>
          </mxGeometry>
        </mxCell>
        <mxCell id="y9ehpkaNFnIu_bV9-kYs-1" value="USB Connector" style="rounded=1;whiteSpace=wrap;html=1;fillColor=#d5e8d4;strokeColor=#82b366;" parent="1" vertex="1">
          <mxGeometry x="24" y="150" width="120" height="60" as="geometry" />
        </mxCell>
        <mxCell id="y9ehpkaNFnIu_bV9-kYs-5" value="" style="edgeStyle=orthogonalEdgeStyle;rounded=0;orthogonalLoop=1;jettySize=auto;html=1;entryX=0.5;entryY=0;entryDx=0;entryDy=0;" parent="1" source="y9ehpkaNFnIu_bV9-kYs-2" target="y9ehpkaNFnIu_bV9-kYs-14" edge="1">
          <mxGeometry relative="1" as="geometry">
            <mxPoint x="344" y="220" as="sourcePoint" />
            <mxPoint x="299" y="270" as="targetPoint" />
            <Array as="points">
              <mxPoint x="467" y="220" />
              <mxPoint x="299" y="220" />
            </Array>
          </mxGeometry>
        </mxCell>
        <mxCell id="y9ehpkaNFnIu_bV9-kYs-19" style="edgeStyle=orthogonalEdgeStyle;rounded=0;orthogonalLoop=1;jettySize=auto;html=1;entryX=0.5;entryY=0;entryDx=0;entryDy=0;" parent="1" source="y9ehpkaNFnIu_bV9-kYs-2" target="y9ehpkaNFnIu_bV9-kYs-17" edge="1">
          <mxGeometry relative="1" as="geometry">
            <Array as="points">
              <mxPoint x="467" y="220" />
              <mxPoint x="515" y="220" />
            </Array>
          </mxGeometry>
        </mxCell>
        <mxCell id="y9ehpkaNFnIu_bV9-kYs-22" style="edgeStyle=orthogonalEdgeStyle;rounded=0;orthogonalLoop=1;jettySize=auto;html=1;exitX=0.5;exitY=1;exitDx=0;exitDy=0;" parent="1" source="y9ehpkaNFnIu_bV9-kYs-2" target="y9ehpkaNFnIu_bV9-kYs-7" edge="1">
          <mxGeometry relative="1" as="geometry">
            <Array as="points">
              <mxPoint x="467" y="220" />
              <mxPoint x="604" y="220" />
            </Array>
          </mxGeometry>
        </mxCell>
        <mxCell id="y9ehpkaNFnIu_bV9-kYs-2" value="Power Supply" style="rounded=1;whiteSpace=wrap;html=1;" parent="1" vertex="1">
          <mxGeometry x="194" y="160" width="546" height="40" as="geometry" />
        </mxCell>
        <mxCell id="y9ehpkaNFnIu_bV9-kYs-8" value="" style="edgeStyle=orthogonalEdgeStyle;rounded=0;orthogonalLoop=1;jettySize=auto;html=1;startArrow=classic;startFill=1;entryX=0;entryY=0.5;entryDx=0;entryDy=0;curved=1;exitX=1;exitY=0.75;exitDx=0;exitDy=0;" parent="1" source="y9ehpkaNFnIu_bV9-kYs-14" target="y9ehpkaNFnIu_bV9-kYs-7" edge="1">
          <mxGeometry relative="1" as="geometry" />
        </mxCell>
        <mxCell id="y9ehpkaNFnIu_bV9-kYs-12" style="edgeStyle=orthogonalEdgeStyle;rounded=0;orthogonalLoop=1;jettySize=auto;html=1;entryX=0;entryY=0.5;entryDx=0;entryDy=0;exitX=1;exitY=0.75;exitDx=0;exitDy=0;curved=1;" parent="1" source="y9ehpkaNFnIu_bV9-kYs-7" target="y9ehpkaNFnIu_bV9-kYs-11" edge="1">
          <mxGeometry relative="1" as="geometry" />
        </mxCell>
        <mxCell id="y9ehpkaNFnIu_bV9-kYs-7" value="Data Converters" style="rounded=1;whiteSpace=wrap;html=1;fillColor=#e1d5e7;strokeColor=#9673a6;" parent="1" vertex="1">
          <mxGeometry x="530" y="330" width="147" height="60" as="geometry" />
        </mxCell>
        <mxCell id="y9ehpkaNFnIu_bV9-kYs-13" style="edgeStyle=orthogonalEdgeStyle;rounded=0;orthogonalLoop=1;jettySize=auto;html=1;entryX=1;entryY=0.25;entryDx=0;entryDy=0;curved=1;" parent="1" source="y9ehpkaNFnIu_bV9-kYs-10" target="y9ehpkaNFnIu_bV9-kYs-7" edge="1">
          <mxGeometry relative="1" as="geometry" />
        </mxCell>
        <mxCell id="y9ehpkaNFnIu_bV9-kYs-10" value="Input Connector" style="rounded=1;whiteSpace=wrap;html=1;fillColor=#d5e8d4;strokeColor=#82b366;" parent="1" vertex="1">
          <mxGeometry x="720" y="330" width="120" height="20" as="geometry" />
        </mxCell>
        <mxCell id="y9ehpkaNFnIu_bV9-kYs-11" value="Output Connector" style="rounded=1;whiteSpace=wrap;html=1;fillColor=#d5e8d4;strokeColor=#82b366;" parent="1" vertex="1">
          <mxGeometry x="720" y="370" width="120" height="20" as="geometry" />
        </mxCell>
        <mxCell id="y9ehpkaNFnIu_bV9-kYs-14" value="Processor" style="rounded=1;whiteSpace=wrap;html=1;fillColor=#dae8fc;strokeColor=#6c8ebf;" parent="1" vertex="1">
          <mxGeometry x="194" y="240" width="210" height="160" as="geometry" />
        </mxCell>
        <mxCell id="y9ehpkaNFnIu_bV9-kYs-18" style="edgeStyle=orthogonalEdgeStyle;rounded=0;orthogonalLoop=1;jettySize=auto;html=1;entryX=1;entryY=0.25;entryDx=0;entryDy=0;curved=1;startArrow=classic;startFill=1;" parent="1" source="y9ehpkaNFnIu_bV9-kYs-17" target="y9ehpkaNFnIu_bV9-kYs-14" edge="1">
          <mxGeometry relative="1" as="geometry" />
        </mxCell>
        <mxCell id="y9ehpkaNFnIu_bV9-kYs-17" value="Effect controls" style="rounded=1;whiteSpace=wrap;html=1;fillColor=#fff2cc;strokeColor=#d6b656;" parent="1" vertex="1">
          <mxGeometry x="450" y="250" width="130" height="60" as="geometry" />
        </mxCell>
        <mxCell id="y9ehpkaNFnIu_bV9-kYs-25" value="" style="edgeStyle=orthogonalEdgeStyle;rounded=0;orthogonalLoop=1;jettySize=auto;html=1;" parent="1" source="y9ehpkaNFnIu_bV9-kYs-27" target="y9ehpkaNFnIu_bV9-kYs-31" edge="1">
          <mxGeometry relative="1" as="geometry" />
        </mxCell>
        <mxCell id="y9ehpkaNFnIu_bV9-kYs-41" value="+5V" style="edgeLabel;html=1;align=center;verticalAlign=middle;resizable=0;points=[];" parent="y9ehpkaNFnIu_bV9-kYs-25" vertex="1" connectable="0">
          <mxGeometry x="0.0229" relative="1" as="geometry">
            <mxPoint x="-10" as="offset" />
          </mxGeometry>
        </mxCell>
        <mxCell id="y9ehpkaNFnIu_bV9-kYs-26" style="edgeStyle=orthogonalEdgeStyle;rounded=0;orthogonalLoop=1;jettySize=auto;html=1;entryX=0;entryY=0.5;entryDx=0;entryDy=0;" parent="1" source="y9ehpkaNFnIu_bV9-kYs-27" target="y9ehpkaNFnIu_bV9-kYs-49" edge="1">
          <mxGeometry relative="1" as="geometry">
            <mxPoint x="194" y="630" as="targetPoint" />
            <Array as="points">
              <mxPoint x="84" y="615" />
            </Array>
          </mxGeometry>
        </mxCell>
        <mxCell id="y9ehpkaNFnIu_bV9-kYs-42" value="USB 2.0 FS" style="edgeLabel;html=1;align=center;verticalAlign=middle;resizable=0;points=[];" parent="y9ehpkaNFnIu_bV9-kYs-26" vertex="1" connectable="0">
          <mxGeometry x="0.1729" relative="1" as="geometry">
            <mxPoint x="11" as="offset" />
          </mxGeometry>
        </mxCell>
        <mxCell id="y9ehpkaNFnIu_bV9-kYs-27" value="USB Type-C Connector" style="rounded=1;whiteSpace=wrap;html=1;fillColor=#d5e8d4;strokeColor=#82b366;" parent="1" vertex="1">
          <mxGeometry x="24" y="460" width="120" height="60" as="geometry" />
        </mxCell>
        <mxCell id="y9ehpkaNFnIu_bV9-kYs-28" value="" style="edgeStyle=orthogonalEdgeStyle;rounded=0;orthogonalLoop=1;jettySize=auto;html=1;entryX=0.5;entryY=0;entryDx=0;entryDy=0;exitX=0.5;exitY=1;exitDx=0;exitDy=0;" parent="1" source="y9ehpkaNFnIu_bV9-kYs-44" target="y9ehpkaNFnIu_bV9-kYs-38" edge="1">
          <mxGeometry relative="1" as="geometry">
            <mxPoint x="467" y="530" as="sourcePoint" />
            <mxPoint x="299" y="600" as="targetPoint" />
            <Array as="points">
              <mxPoint x="300" y="510" />
              <mxPoint x="300" y="540" />
              <mxPoint x="299" y="540" />
            </Array>
          </mxGeometry>
        </mxCell>
        <mxCell id="y9ehpkaNFnIu_bV9-kYs-29" style="edgeStyle=orthogonalEdgeStyle;rounded=0;orthogonalLoop=1;jettySize=auto;html=1;entryX=0.5;entryY=0;entryDx=0;entryDy=0;exitX=0.5;exitY=1;exitDx=0;exitDy=0;" parent="1" source="y9ehpkaNFnIu_bV9-kYs-44" target="y9ehpkaNFnIu_bV9-kYs-40" edge="1">
          <mxGeometry relative="1" as="geometry">
            <Array as="points">
              <mxPoint x="300" y="510" />
              <mxPoint x="300" y="550" />
              <mxPoint x="525" y="550" />
            </Array>
          </mxGeometry>
        </mxCell>
        <mxCell id="y9ehpkaNFnIu_bV9-kYs-30" style="edgeStyle=orthogonalEdgeStyle;rounded=0;orthogonalLoop=1;jettySize=auto;html=1;exitX=0.5;exitY=1;exitDx=0;exitDy=0;" parent="1" edge="1">
          <mxGeometry relative="1" as="geometry">
            <Array as="points">
              <mxPoint x="470" y="520" />
              <mxPoint x="610" y="520" />
              <mxPoint x="610" y="730" />
            </Array>
            <mxPoint x="470" y="500" as="sourcePoint" />
            <mxPoint x="610" y="730" as="targetPoint" />
          </mxGeometry>
        </mxCell>
        <mxCell id="y9ehpkaNFnIu_bV9-kYs-33" style="edgeStyle=orthogonalEdgeStyle;rounded=0;orthogonalLoop=1;jettySize=auto;html=1;entryX=0;entryY=0.5;entryDx=0;entryDy=0;exitX=1;exitY=0.5;exitDx=0;exitDy=0;curved=1;" parent="1" source="y9ehpkaNFnIu_bV9-kYs-83" target="y9ehpkaNFnIu_bV9-kYs-37" edge="1">
          <mxGeometry relative="1" as="geometry">
            <mxPoint x="645" y="835" as="sourcePoint" />
          </mxGeometry>
        </mxCell>
        <mxCell id="y9ehpkaNFnIu_bV9-kYs-35" style="edgeStyle=orthogonalEdgeStyle;rounded=0;orthogonalLoop=1;jettySize=auto;html=1;entryX=1;entryY=0.5;entryDx=0;entryDy=0;curved=1;" parent="1" source="y9ehpkaNFnIu_bV9-kYs-36" target="y9ehpkaNFnIu_bV9-kYs-75" edge="1">
          <mxGeometry relative="1" as="geometry" />
        </mxCell>
        <mxCell id="y9ehpkaNFnIu_bV9-kYs-36" value="TS 1/4â connector" style="rounded=1;whiteSpace=wrap;html=1;fillColor=#d5e8d4;strokeColor=#82b366;" parent="1" vertex="1">
          <mxGeometry x="720" y="780" width="120" height="20" as="geometry" />
        </mxCell>
        <mxCell id="y9ehpkaNFnIu_bV9-kYs-37" value="TS 1/4â connector" style="rounded=1;whiteSpace=wrap;html=1;fillColor=#d5e8d4;strokeColor=#82b366;" parent="1" vertex="1">
          <mxGeometry x="720" y="820" width="120" height="20" as="geometry" />
        </mxCell>
        <mxCell id="y9ehpkaNFnIu_bV9-kYs-44" value="Buck Converter&lt;br&gt;(5V to 3V3), Io=100mA" style="rounded=1;whiteSpace=wrap;html=1;verticalAlign=top;" parent="1" vertex="1">
          <mxGeometry x="236" y="470" width="126" height="40" as="geometry" />
        </mxCell>
        <mxCell id="y9ehpkaNFnIu_bV9-kYs-45" value="LDO (5V to 3V3), Io=50mA" style="rounded=1;whiteSpace=wrap;html=1;verticalAlign=top;" parent="1" vertex="1">
          <mxGeometry x="400" y="470" width="126" height="40" as="geometry" />
        </mxCell>
        <mxCell id="y9ehpkaNFnIu_bV9-kYs-47" style="edgeStyle=orthogonalEdgeStyle;rounded=0;orthogonalLoop=1;jettySize=auto;html=1;" parent="1" source="y9ehpkaNFnIu_bV9-kYs-46" edge="1">
          <mxGeometry relative="1" as="geometry">
            <mxPoint x="610" y="730" as="targetPoint" />
            <Array as="points">
              <mxPoint x="643" y="520" />
              <mxPoint x="610" y="520" />
              <mxPoint x="610" y="730" />
            </Array>
          </mxGeometry>
        </mxCell>
        <mxCell id="y9ehpkaNFnIu_bV9-kYs-46" value="OpAmp Bias Generator" style="rounded=1;whiteSpace=wrap;html=1;verticalAlign=top;" parent="1" vertex="1">
          <mxGeometry x="580" y="470" width="126" height="40" as="geometry" />
        </mxCell>
        <mxCell id="y9ehpkaNFnIu_bV9-kYs-49" value="USB PHY" style="rounded=1;whiteSpace=wrap;html=1;verticalAlign=top;" parent="1" vertex="1">
          <mxGeometry x="210" y="600" width="80" height="30" as="geometry" />
        </mxCell>
        <mxCell id="y9ehpkaNFnIu_bV9-kYs-50" value="HSE XTAL" style="rounded=1;whiteSpace=wrap;html=1;verticalAlign=top;" parent="1" vertex="1">
          <mxGeometry x="210" y="640" width="80" height="30" as="geometry" />
        </mxCell>
        <mxCell id="y9ehpkaNFnIu_bV9-kYs-54" style="edgeStyle=orthogonalEdgeStyle;rounded=0;orthogonalLoop=1;jettySize=auto;html=1;entryX=1;entryY=0.5;entryDx=0;entryDy=0;startArrow=classic;startFill=1;" parent="1" source="y9ehpkaNFnIu_bV9-kYs-51" target="y9ehpkaNFnIu_bV9-kYs-53" edge="1">
          <mxGeometry relative="1" as="geometry" />
        </mxCell>
        <mxCell id="y9ehpkaNFnIu_bV9-kYs-51" value="SWD" style="rounded=1;whiteSpace=wrap;html=1;verticalAlign=top;" parent="1" vertex="1">
          <mxGeometry x="210" y="680" width="80" height="30" as="geometry" />
        </mxCell>
        <mxCell id="y9ehpkaNFnIu_bV9-kYs-53" value="Tag-Connect" style="rounded=1;whiteSpace=wrap;html=1;fillColor=#d5e8d4;strokeColor=#82b366;" parent="1" vertex="1">
          <mxGeometry x="90" y="685" width="80" height="20" as="geometry" />
        </mxCell>
        <mxCell id="y9ehpkaNFnIu_bV9-kYs-55" value="Knobs" style="rounded=1;whiteSpace=wrap;html=1;verticalAlign=top;" parent="1" vertex="1">
          <mxGeometry x="485" y="600" width="80" height="30" as="geometry" />
        </mxCell>
        <mxCell id="y9ehpkaNFnIu_bV9-kYs-71" value="" style="edgeStyle=orthogonalEdgeStyle;rounded=0;orthogonalLoop=1;jettySize=auto;html=1;entryX=1;entryY=0.5;entryDx=0;entryDy=0;" parent="1" source="y9ehpkaNFnIu_bV9-kYs-56" target="y9ehpkaNFnIu_bV9-kYs-61" edge="1">
          <mxGeometry relative="1" as="geometry" />
        </mxCell>
        <mxCell id="y9ehpkaNFnIu_bV9-kYs-72" value="x3" style="edgeLabel;html=1;align=center;verticalAlign=middle;resizable=0;points=[];" parent="y9ehpkaNFnIu_bV9-kYs-71" vertex="1" connectable="0">
          <mxGeometry x="-0.4546" relative="1" as="geometry">
            <mxPoint x="-29" as="offset" />
          </mxGeometry>
        </mxCell>
        <mxCell id="y9ehpkaNFnIu_bV9-kYs-56" value="Buttons" style="rounded=1;whiteSpace=wrap;html=1;verticalAlign=top;" parent="1" vertex="1">
          <mxGeometry x="485" y="640" width="80" height="30" as="geometry" />
        </mxCell>
        <mxCell id="y9ehpkaNFnIu_bV9-kYs-57" value="LEDs" style="rounded=1;whiteSpace=wrap;html=1;verticalAlign=top;" parent="1" vertex="1">
          <mxGeometry x="485" y="680" width="80" height="30" as="geometry" />
        </mxCell>
        <mxCell id="y9ehpkaNFnIu_bV9-kYs-59" style="edgeStyle=orthogonalEdgeStyle;rounded=0;orthogonalLoop=1;jettySize=auto;html=1;entryX=0;entryY=0.5;entryDx=0;entryDy=0;startArrow=classic;startFill=1;endArrow=none;endFill=0;" parent="1" source="y9ehpkaNFnIu_bV9-kYs-58" target="y9ehpkaNFnIu_bV9-kYs-55" edge="1">
          <mxGeometry relative="1" as="geometry" />
        </mxCell>
        <mxCell id="y9ehpkaNFnIu_bV9-kYs-60" value="x6" style="edgeLabel;html=1;align=center;verticalAlign=middle;resizable=0;points=[];" parent="y9ehpkaNFnIu_bV9-kYs-59" vertex="1" connectable="0">
          <mxGeometry x="-0.1294" y="-1" relative="1" as="geometry">
            <mxPoint as="offset" />
          </mxGeometry>
        </mxCell>
        <mxCell id="y9ehpkaNFnIu_bV9-kYs-58" value="ADC" style="rounded=1;whiteSpace=wrap;html=1;verticalAlign=top;" parent="1" vertex="1">
          <mxGeometry x="310" y="600" width="80" height="30" as="geometry" />
        </mxCell>
        <mxCell id="y9ehpkaNFnIu_bV9-kYs-63" style="edgeStyle=orthogonalEdgeStyle;rounded=0;orthogonalLoop=1;jettySize=auto;html=1;entryX=0;entryY=0.5;entryDx=0;entryDy=0;exitX=1;exitY=0.5;exitDx=0;exitDy=0;" parent="1" source="y9ehpkaNFnIu_bV9-kYs-70" target="y9ehpkaNFnIu_bV9-kYs-57" edge="1">
          <mxGeometry relative="1" as="geometry">
            <Array as="points" />
          </mxGeometry>
        </mxCell>
        <mxCell id="y9ehpkaNFnIu_bV9-kYs-65" value="x3" style="edgeLabel;html=1;align=center;verticalAlign=middle;resizable=0;points=[];" parent="y9ehpkaNFnIu_bV9-kYs-63" vertex="1" connectable="0">
          <mxGeometry x="0.2512" y="2" relative="1" as="geometry">
            <mxPoint x="-20" y="2" as="offset" />
          </mxGeometry>
        </mxCell>
        <mxCell id="y9ehpkaNFnIu_bV9-kYs-61" value="GPIO" style="rounded=1;whiteSpace=wrap;html=1;verticalAlign=top;" parent="1" vertex="1">
          <mxGeometry x="310" y="640" width="80" height="30" as="geometry" />
        </mxCell>
        <mxCell id="y9ehpkaNFnIu_bV9-kYs-67" value="SPI" style="rounded=1;whiteSpace=wrap;html=1;verticalAlign=top;" parent="1" vertex="1">
          <mxGeometry x="310" y="770" width="80" height="30" as="geometry" />
        </mxCell>
        <mxCell id="y9ehpkaNFnIu_bV9-kYs-79" style="edgeStyle=orthogonalEdgeStyle;rounded=0;orthogonalLoop=1;jettySize=auto;html=1;entryX=0;entryY=0.5;entryDx=0;entryDy=0;" parent="1" source="y9ehpkaNFnIu_bV9-kYs-68" target="y9ehpkaNFnIu_bV9-kYs-76" edge="1">
          <mxGeometry relative="1" as="geometry" />
        </mxCell>
        <mxCell id="y9ehpkaNFnIu_bV9-kYs-68" value="SPI" style="rounded=1;whiteSpace=wrap;html=1;verticalAlign=top;" parent="1" vertex="1">
          <mxGeometry x="310" y="820" width="80" height="30" as="geometry" />
        </mxCell>
        <mxCell id="y9ehpkaNFnIu_bV9-kYs-70" value="GPIO" style="rounded=1;whiteSpace=wrap;html=1;verticalAlign=top;" parent="1" vertex="1">
          <mxGeometry x="310" y="680" width="80" height="30" as="geometry" />
        </mxCell>
        <mxCell id="y9ehpkaNFnIu_bV9-kYs-80" style="edgeStyle=orthogonalEdgeStyle;rounded=0;orthogonalLoop=1;jettySize=auto;html=1;entryX=1;entryY=0.5;entryDx=0;entryDy=0;" parent="1" source="y9ehpkaNFnIu_bV9-kYs-74" target="y9ehpkaNFnIu_bV9-kYs-67" edge="1">
          <mxGeometry relative="1" as="geometry" />
        </mxCell>
        <mxCell id="y9ehpkaNFnIu_bV9-kYs-74" value="ADC (14-bit)" style="rounded=1;whiteSpace=wrap;html=1;verticalAlign=top;" parent="1" vertex="1">
          <mxGeometry x="450" y="770" width="80" height="30" as="geometry" />
        </mxCell>
        <mxCell id="y9ehpkaNFnIu_bV9-kYs-81" style="edgeStyle=orthogonalEdgeStyle;rounded=0;orthogonalLoop=1;jettySize=auto;html=1;entryX=1;entryY=0.5;entryDx=0;entryDy=0;" parent="1" source="y9ehpkaNFnIu_bV9-kYs-75" target="y9ehpkaNFnIu_bV9-kYs-74" edge="1">
          <mxGeometry relative="1" as="geometry" />
        </mxCell>
        <mxCell id="y9ehpkaNFnIu_bV9-kYs-75" value="&lt;font style=&quot;font-size: 10px;&quot;&gt;Analog frontend&lt;/font&gt;" style="rounded=1;whiteSpace=wrap;html=1;verticalAlign=top;" parent="1" vertex="1">
          <mxGeometry x="563.5" y="770" width="80" height="30" as="geometry" />
        </mxCell>
        <mxCell id="y9ehpkaNFnIu_bV9-kYs-82" style="edgeStyle=orthogonalEdgeStyle;rounded=0;orthogonalLoop=1;jettySize=auto;html=1;entryX=0;entryY=0.5;entryDx=0;entryDy=0;" parent="1" source="y9ehpkaNFnIu_bV9-kYs-76" target="y9ehpkaNFnIu_bV9-kYs-83" edge="1">
          <mxGeometry relative="1" as="geometry">
            <mxPoint x="565" y="835" as="targetPoint" />
          </mxGeometry>
        </mxCell>
        <mxCell id="y9ehpkaNFnIu_bV9-kYs-76" value="DAC (12-bit)" style="rounded=1;whiteSpace=wrap;html=1;verticalAlign=top;" parent="1" vertex="1">
          <mxGeometry x="450" y="820" width="80" height="30" as="geometry" />
        </mxCell>
        <mxCell id="y9ehpkaNFnIu_bV9-kYs-83" value="&lt;font style=&quot;font-size: 10px;&quot;&gt;Analog frontend&lt;/font&gt;" style="rounded=1;whiteSpace=wrap;html=1;verticalAlign=top;" parent="1" vertex="1">
          <mxGeometry x="563.5" y="820" width="80" height="30" as="geometry" />
        </mxCell>
      </root>
    </mxGraphModel>
  </diagram>
</mxfile>
